<svg xmlns="http://www.w3.org/2000/svg" width="166" height="161" viewBox="-5 0 166 161" class="looka-1j8o68f">
  <g id="SvgjsG2740" featurekey="symbolContainer" transform="matrix(1.465760080696963,0,0,1.465760080696963,-0.0814336170558531,0)" fill="#00a8b5">
    <g>
      <path d="M19.8 15.3h.5l-.4-.2zm.5.1zm.8-.7c0 .1 0 .1.1.1l.4-.3c-.2-.1-.3-.1-.5.2zm.4-.2zm-4.1 2.3zm-.2.6l.3-.2c.1-.1.1-.2.1-.2h-.2l-.2.4c-.1-.1-.1 0 0 0zm2.2-2.9h-.1l-.2.2h.3zm-2.1 2.4l.6-.5c.1-.1.1-.2.1-.3h-.3l-1.2 1.1-.2.4.7-.6zm-1.1.8z"/>
      <path d="M9.7 25v-.2a1.7 1.7 0 0 1 .7-1.1l.9-.6.5-.6.7-.7.4-.4.4-.3a1.9 1.9 0 0 0 .8-.9l.4-.5a5.9 5.9 0 0 0 1-1.3l.2-.3.3-.2-.2-.3.4-.5c.8-.6 1.4-1.4 2.2-2l.3-.3a1.4 1.4 0 0 1 .5-.6l.8-.4h.4a1.4 1.4 0 0 0 .7-.6V13a3.5 3.5 0 0 1 1.3-1.4l.8-.5.2-.2.4-.4 1-.5h.2l-1.1.4-1.4 1c-.6.5-1.4.6-1.8 1.4h.3c-.7.2-1.4.5-1.7 1.2s-.8.6-1.2.9a.4.4 0 0 0-.3.4c-.8-.1-1.1.5-1.5.9v.8a3.9 3.9 0 0 0-1.6 1.4c-1.6.1-1.6 2.1-3 2.5h-.1a.2.2 0 0 0 0 .2c-.3 0-.5.2-.4.5l-.2.5c-.7.4-.6 1.1-1 1.7-.8.5-1.1 1.5-1.7 2.2l.3.5.2-.2a11.6 11.6 0 0 1 .9-1.3zM53.9 3.3l.6.2h.2a2.2 2.2 0 0 0 1.4.2 4.1 4.1 0 0 1 1.9.1h1.2a1.4 1.4 0 0 1 1.2.3.1.1 0 0 1 0 .1H60a.1.1 0 0 0 0 .1h.7a1.8 1.8 0 0 1 1.3 0c.2 0 .1.1.2.2l.5.2h-.2c-.2-.4-.5-.4-.8-.4a9.7 9.7 0 0 0-4.3-.9h-.8A9.8 9.8 0 0 0 53 3h.2zm7.3 3.1zM50.3 4.7zm10.9 1.7h.2-.2zM19 14.7zm32.1-10zm17.6 2.2a.9.9 0 0 0 1 .2h.6a3.1 3.1 0 0 0-1.8-.7l-.7-.2.5.3zm-3.4-1.3c0 .1.1.2.2.3h.2l.5-.3a4.2 4.2 0 0 0-1.7-.6l.7.4zm7.4 2.7l.8.5c-.2-.3-.4-.5-.8-.5z"/>
      <path d="M99 76.1l.6-1.6.6-1.5c.2-.5.6-1.8.8-2.6a1.7 1.7 0 0 1 .3-.7h.1v-1.1c.5-.1.4-.6.5-.9l.8-4.7a12.7 12.7 0 0 0 0-6.2 1.9 1.9 0 0 0-.5-1.6v-4.3c-.3-.9.3-1.9-.4-2.7L101 45a.4.4 0 0 0 0-.2l-.2-.6a.5.5 0 0 1 0-.4h.1c.3 0 .3-.5.3-.9a3 3 0 0 0-.4-1.1l-.3-.4a1.1 1.1 0 0 1-.2-.7 6.7 6.7 0 0 0-.2-2v-.6c-.2-.7-.4-1.5-.6-2.2l-.2-.5a2.5 2.5 0 0 1-.4-1.1 2.5 2.5 0 0 0-.3-.8l-.6-1a.8.8 0 0 0-.6-.2h-.1V32h-.2v-.8H97V31a.4.4 0 0 0 0-.1v-.2c.1-.2.1-.3-.1-.5a1.8 1.8 0 0 1-.4-.6l-.2-.6a2.9 2.9 0 0 0-.7-1.2 2.2 2.2 0 0 1-.5-.7l-.7-1.6a4.3 4.3 0 0 0-.6-1l-.6-.8a2.4 2.4 0 0 1-.4-.8l-.2-.3a.6.6 0 0 1-.1-.5.5.5 0 0 0-.2-.4l-.4-.3v.2c.1.2 0 .3-.1.3h-.2l.3 1 .3.5.7.9h-.1l-.2-.2-.2-.2a1.3 1.3 0 0 0-1.2-1.1v-.7c-.3-1.2-1.6-1.3-2.2-2.1a1.5 1.5 0 0 0-1.1-.9l-.8-.9a11.3 11.3 0 0 0-3.1-3l-.8-.6-.4-.3c-.7-.7-1-1.8-2.2-1.8l-.8-.5-.9-.7a2.2 2.2 0 0 0-1.8-1.3 5.1 5.1 0 0 0-2.3-1.2l.2.2.5.4 1.3.7a8.5 8.5 0 0 1 2.1 1.6 6.8 6.8 0 0 0 1.5 1.1l.6.5c.1.1.2.2.1.3H81l-.9-.3a5.6 5.6 0 0 1-2-.8l-1.2-.6-1.3-.7h-.2c-.3-.1-.4-.4-.8-.5l-.8-.2-2.5-.5a2.6 2.6 0 0 1-.9-.7 1.7 1.7 0 0 1-.9-.3l-1-.4a18.1 18.1 0 0 1-2.8-.8l-.6-.2-1-.3h-.5l-.2-.3v-.1h-1.6l-.6-.5-.4.2-.4.2h-.2l-.9-.5c-.6.6-1.1-.2-1.6-.1l-1-.3a1.2 1.2 0 0 1-1.2 0h-1.2a.6.6 0 0 1-.5-.6l.3-.2h.6a.7.7 0 0 1 .1.3c0 .2.2.2.5.2h.2l-.4-.6a1.1 1.1 0 0 0-1-.2l-1 .3H53c.3.2.2.3.2.5h-1.6l-.4-.2-.8-.4h-.1l-.7-.2h-2.3l.4-.2.8-.2h.3l1.7-.3 1.1-.2.6-.2h-1.1a8.4 8.4 0 0 0-3.4 0h-1.3L43 3.6c-1.4.1-2.8 0-3.9 1.2-2.5-.4-4.7.7-6.9 1.8l-2.2.9a6.7 6.7 0 0 0-3.7 1.8h.3l.5-.3.8-.5 1.3-.6 1-.2a6 6 0 0 1 2-.9l.9-.3h.2c.1.2.5 0 .7 0h.2c.1 0 .1.1 0 .1l-.6.4 1-.3.8-.2-1.3.7-1.3.4a1 1 0 0 0-.6.5l-.3.5h.3l.4-.2a1.4 1.4 0 0 1 .9-.6l1.5-.5h.5a.1.1 0 0 1 .1.2c-.2.2-.6.3-.8.5h.2l-3.2.9-3.8 1.6a5.2 5.2 0 0 1-2.3 1.2 6.6 6.6 0 0 1-1.7 1.1l-.8.2a1.5 1.5 0 0 1-1.3.9l-.3.5a3.7 3.7 0 0 1-1.2 1.1h-.1v-.1l-.2.2-.2.2-1 .2h-.5l-.4.5c-.1.1-.1.2 0 .2h.1c-.6.6-1 1.4-1.8 1.7L15 19.9c-.6 1.2-1.8 1.6-2.6 2.6s-1.4 3.9-3.9 4.3l-.2-.3-.2.5a2.7 2.7 0 0 1-.4.8 16.9 16.9 0 0 0-1.2 2.1.8.8 0 0 0-.1.5 1.4 1.4 0 0 1-.2.8l-.5 1.1h.2c.3 0 .3.3.4.6l.8-1.1a2.2 2.2 0 0 1 .6-.7 2 2 0 0 0 .9-.9l.3-.3.4-.4.6-1.1h.2c.1.1.1.1.2 0l.2-.4h.5v.8l.5-.5a.5.5 0 0 0 0-.5.4.4 0 0 1 .1-.3 1.5 1.5 0 0 0 .3-.5 1.3 1.3 0 0 1 .8-.9l.3-.2.3-.3a2.4 2.4 0 0 0 .8-1l-.2-.3c0-.1.1-.3.2-.4h.5l.6-.8.6-.3h.2a48.8 48.8 0 0 0-5.5 7.2h-.1.1a48.4 48.4 0 0 0-5.3 11.2h-.5l-.5-.4c-.2-.2-.1-.7-.4-.9h.1c.3-.5-.1-1.2.3-1.7s.1-1.4-.9-1.2-1.5.5-1.3 1.5-1 1.8-1.1 2.9-.5.5-.3.9v3.9c.1.8-.5 1.8.8 2.1l1.3.9c.1.5-.5 1.6.9 1.3a49.2 49.2 0 0 0-.3 5c0 1.1.1 2.2.1 3.3v-.4c-.1-.4-.1-.8-.2-1.3l-.3.3v-.2h-.5c0 .5-.1.8-.4.9a.9.9 0 0 0-.1.5c0 .1.1.3.2.2s.4.2.7.4-.2.3-.4.2-.2.1-.2.3v.3l.5 1.5c0 .3-.1.6-.1.9a1.7 1.7 0 0 0 .2.8h-.3v-.3l-.7-.2v-.6a1.5 1.5 0 0 0 0-.5 14.6 14.6 0 0 1-.3-1.8 16.6 16.6 0 0 1-.2-3.5.9.9 0 0 1 .1-.5v.2a2.9 2.9 0 0 1 .1.5.8.8 0 0 0 .1.4c.1.2.2.4.4.4s.1-.1.1-.2a2.1 2.1 0 0 0-.1-.5 4.2 4.2 0 0 1-.3-1.3 1.5 1.5 0 0 0-.3-.7 1.6 1.6 0 0 1-.2-.9v-.8c0-.3.1-.6.1-.9a.5.5 0 0 0-.1-.4h-.1c-.8.4-.7.2-1 1.6V55c0 .7-.1 1.4 0 2.1a10.8 10.8 0 0 0 .2 2.3 1.8 1.8 0 0 1 0 .5 3.1 3.1 0 0 0 .1.9 5.9 5.9 0 0 1 .1 1.3 3.9 3.9 0 0 0 .2 1.7 1.2 1.2 0 0 1 0 .4 2.1 2.1 0 0 0 .1.8 4.9 4.9 0 0 1 .2.9 14 14 0 0 0 .5 2.2 5 5 0 0 1 .2 1 1.7 1.7 0 0 0 .3.7 2.9 2.9 0 0 1 .5 1.2 8.5 8.5 0 0 0 .3 1l.4 1.4a5.4 5.4 0 0 0 .6 1.5 8.5 8.5 0 0 1 .8 2.1l.2.5a2.1 2.1 0 0 1 .5 1 2.1 2.1 0 0 0 .4.8 1 1 0 0 1 .2.5c.1.3.2.4.4.3h.1v.9l.5 1 .5 1 1.1 1.2.4.4c.3.3.7.5.9 1l.4.3a.7.7 0 0 1 .3.5l.2.7a3.3 3.3 0 0 0 .6.9l.4.2h.3a.2.2 0 0 1 .1.3 2.5 2.5 0 0 0 0 .5.9.9 0 0 0 .4.5h.2c.4-.1.8.2 1.2.7h.1c0-.1.1-.1 0-.2v-.2c0-.1.1-.2.2-.1a.7.7 0 0 1 .3.6v.2a4.3 4.3 0 0 0 .4 1.2c.5.3.5.3.5.1s0-.2.2-.2h.4l.2.3.8.5c.7.8 1.8.7 2.6 1.2l1.7 1.7h.2a2.9 2.9 0 0 0 1.6 1.6 1.3 1.3 0 0 0 1 .6c0 .5.6.6 1.1.7a1.2 1.2 0 0 0 .8.4h.2a1.7 1.7 0 0 0 1.5.5l.9.8 2.4.9v.2c.5 1.1 1.7.7 2.5 1l1.1.4h.4c1.2.3 2.4.9 3.7.5a.7.7 0 0 0 0 .4c1.1.7 2.4 0 3.6.4a2.9 2.9 0 0 0 1.7.1h.1l.8.2h.3l.9.2h.3a.5.5 0 0 1 .5 0 7.9 7.9 0 0 0 1.5.4h.6a.7.7 0 0 1 .7 0h3.9a5 5 0 0 0 1.6-.1h1l.5-.2H60l.6-.2.5-.3h2.2v.6H62l-1.2.2c-.4.1-.7 0-1 .1a2.4 2.4 0 0 1-1 .2l-1.3.3h-.4a3.1 3.1 0 0 0-1.5.1h-1.8a1.1 1.1 0 0 1-.9 0h-4.5a1.3 1.3 0 0 0-1.1.3H47l-.3-.2v-.3h-1.2a4.1 4.1 0 0 0-1.3-.3h-2.5l-.7-.2-.5-.2-2.1-.4h-.5l-.5-.2-2.1-.7-1.4-.4h-2.2c-.1 0-.1.1-.1.2h.2c1.3.5 2.6.9 3.9 1.5h.3l.9.2 1.4.4h1.3l.6.2.7.3 1.7.3 1.1.2 1.1.2h.8l.8.2h3.1l1 .2h2.3l1-.2H56c.4 0 .6-.1.7-.3h1a1 1 0 0 0 .8-.3c-.1.1 0 .1.1.2h.4v-.2c0-.1 0-.1.2-.2s.6-.1.7.1h.4l.3-.2c.2 0 .2 0 .2.1h.7l.5-.2.8-.4c.1.3.4.4 1.3.2l1.3-.4h1.2c.9-.1 2 0 2.7-.7h.2l.4-.3 1.1-.3a6.1 6.1 0 0 0 2-.8l.4-.2h.1l.9-.6.4-.2.5-.2h.4c.4-.1.4-.1.5-.4s0-.1-.2-.1h-.1l.4-.5h.2c.3-.1.5-.2.7-.1h.2a1.3 1.3 0 0 0 .9-.9c.3-.4 1.1-.2 1.3-.8l4.3-3.1c1.1-.1 1.4-1.1 2.2-1.7s2.3-1.1 3-2.2l.9-.4h.1a1 1 0 0 0 1.2-.7v.4c.8-.4 1.8.3 2.6-.5s0-2.7 1-3.8l.7-.5a12.1 12.1 0 0 0 1.5-4.2l.2-.2c0-.3 0-.7.4-.9a.9.9 0 0 0 .2-1.2h-.2a.3.3 0 0 0 0-.3c.7 0 .8-.7 1.2-1V77a.5.5 0 0 1 0-.2 3.8 3.8 0 0 0 .1-.7zM5.9 32.2z"/>
      <path d="M26.4 9.3l-.3.2-.4.3.5-.2zm6.1-2h.1l.3-.2h-.4zm-2.6 1l-.1.1h.1v-.1zm-1.5 1.4zm1.3-.2zm-6.3 3.1zM9.2 26.2l-.4.4H9a.4.4 0 0 0 .2-.4zm3-3.5a2.1 2.1 0 0 0 .3-.6 1.5 1.5 0 0 0-.5.5c-.1.1-.1.2 0 .2zM11 24.2V24c-.2 0-.5.3-.8.3v.2c.3.3.4.2.8-.3zm3 66.2zM73.9 9.2h.1l-.5-.3zm-2.5-1.4c.5-.1.8.4 1.2.5h.1l-.3-.2-1-.5-1.1-.5.3.2zM52.8 3.1zm11.7 2h-.1l-1.2-.2h.5zm2 .7l1.3.4a3.3 3.3 0 0 0-1.3-.4zm-9 0a1 1 0 0 0 .2-.5h-.5l-.3.3.4.3zm9 1.6zM49.9 4.2zm2.9.7zM48.5 4zm13.8 2.1a.5.5 0 0 0 0 .1zm44.8 52.3h-.3V58h.3c.1 0 .2-.3.1-.4s-.1-.7-.3-.8a.3.3 0 0 1-.2-.3l.2-.4a.4.4 0 0 0 0-.2h-.2l-.2-.3c-.1.3-.2.6-.4.7a.5.5 0 0 0 0 .2c0 .1 0 .2-.1.2h-.1a1.1 1.1 0 0 1-.1.3 2.3 2.3 0 0 0-.4.9.4.4 0 0 0 .1.4h.1a1.7 1.7 0 0 0-.1.8v.4a1.8 1.8 0 0 1-.1.5h-.1l-.4.7v.6a1.5 1.5 0 0 1-.3 1.1h-.2l-.2-.2a.9.9 0 0 1-.1-.8 6.5 6.5 0 0 0 .1-1.7c0-.1-.1-.2-.1-.2a.5.5 0 0 0-.1.3v.6c0 .2-.1.6-.3.7s-.1.2-.1.3l-.2.6.3.5c-.2.2-.4.1-.5-.1v1h.3v.4a4.2 4.2 0 0 0-.3 1.4 3.3 3.3 0 0 0 0 .4 4 4 0 0 1-.2 1.3 2 2 0 0 0 0 .6l-.3.7a3.2 3.2 0 0 1-.3.7l-.3.6-.9 2.7c.3.9-.4 1.5-.8 2.1a2.7 2.7 0 0 1-.8 2.3v.4c0 .1.1.2.3.1l.4-.3.2-.4h.2c.1.1.2.1.4-.1h.2a.5.5 0 0 1 .1.6 2.9 2.9 0 0 0-.1.8c0 .1 0 .2.1.2h.2c.1.1.2 0 .3-.3l.2-.5h.3c.4-.1.4-.1.6-.6l.5-.9.3-.6.4-1a1.6 1.6 0 0 1 .3-1 .6.6 0 0 0 .1-.6c0-.2 0-.3.2-.6l.3-.4.5-1a4.7 4.7 0 0 1 .2-.9 3 3 0 0 0 .3-1.3 3.8 3.8 0 0 1 .3-.9v-.5c-.1-.2-.1-.2 0-.6s.1-.2.2-.2a.4.4 0 0 1 .1.3l.2-.5a2.3 2.3 0 0 0 .2-.9v-.3c0-.1 0-.3-.1-.3v.4c-.2 0-.3.2-.5.3a6.4 6.4 0 0 0 .1-.8l.4-.2a.7.7 0 0 0 .2-.6 1.4 1.4 0 0 1 0-.3 4.8 4.8 0 0 0 .2-1.4v-.2l.3-1h.1a.3.3 0 0 0 .1-.3h-.1a.9.9 0 0 1 .2-.8 1.5 1.5 0 0 0-.9-1zm-1.2 7.8zm-.2-9.9zm0 0zM9.1 30.8a.3.3 0 0 0 0-.2l-.2-.2-.2.2-.3.6c0 .3-.3.6-.3.9v.2h.1zm96.3 24.8h.1a1.7 1.7 0 0 0 .2-1.2.5.5 0 0 1 .2-.5h.1v-.2l-.2-.2h-.1c-.1.1-.2.3-.3.3s-.1.1-.1.3v.3a2.2 2.2 0 0 0 .1 1.2zM13.2 90.1c-.1 0 0 .2 0 .3l.8.8h.1c-.2-.3-.3-.6-.2-.7a.9.9 0 0 1-.5-.2zm.8.3zm92.3-35.7h.1a2 2 0 0 0 0-.6c-.3.1-.3.1-.3.6s.1.1.2 0z"/>
      <path d="M106.7 62a.6.6 0 0 0 .1-.5c0-.1-.1-.2-.1-.1h-.2v.2c0 .4.1.5.2.4zm.1-8.2h-.1v.6a1 1 0 0 0 .1-.6zM17.1 92.6h-.2v.2l.2.2h.2v-.2zm86.6-33.3c0-.1 0-.1-.1-.1zM9.9 86.5l.5.5-.4-.6z"/>
      <circle cx="10.5" cy="87.1" transform="rotate(-24.8 10.4 87.159)"/>
      <path d="M9.7 30.1h-.1v.2-.2h.1zm83.2-6.6l-.2-.3h-.1zm-14.7 77.1zM5.9 32.2zm-.1.2a.3.3 0 0 0 .1-.2v.2zm1.9-4.9zM61.5 2.4zm42.8 58.2v.1-.1zM16.4 92.5h-.1c.1.1.2 0 .1-.1zm.2.7h.1l-.1-.1v.1zm73.9-71.3zm15.2 34.4zM14.6 91.7zm92.1-37zm-.8 11.4zM34.6 0z"/>
    </g>
  </g>
  <g featurekey="monogramFeature-0" transform="matrix(2.2847402311174623,0,0,2.2847402311174623,49.80787219751763,-8.793160560951208)" fill="#111111">
    <path d="M7.2738 34.242999999999995 l0.0061524 0.0046875 c-0.0022852 -0.000058594 -0.0046289 -0.00023438 -0.0069726 -0.00029297 c0.00029297 -0.0014648 0.00058594 -0.0029297 0.00082032 -0.0043945 z M10.646 25.759999999999998 l-0.0059765 0.0041015 c-0.000058594 -0.0012305 -0.00011719 -0.0025781 -0.00011719 -0.0038086 c0.0020508 -0.000058594 0.0039844 -0.00029297 0.0060936 -0.00029297 z M24.242 38.954 c0.2843 0.65292 0.31892 1.3821 0.26233 2.1083 c-0.087774 1.1228 -0.4057 2.1938 -0.67974 3.2757 l0.0079104 -0.006504 c-0.1957 0.64458 -0.48135 1.2487 -0.8412 1.8162 c-0.1336 0.2107 -0.2482 0.42457 -0.30563 0.66792 c-0.020449 0.086838 -0.023731 0.19172 -0.075528 0.25517 c-1.0001 1.2249 -1.6409 2.7254 -2.842 3.7889 c-0.52031 0.46078 -0.89814 1.0377 -1.4108 1.502 c-0.77484 0.70176 -1.5384 1.4229 -2.2424 2.1944 c-1.0182 1.1159 -2.1901 2.0588 -3.457 2.8327 c-1.4243 0.87006 -2.8277 1.807 -4.4269 2.3734 c-0.88698 0.31424 -1.7297 0.31723 -2.6184 0.0053906 c-0.95028 -0.33346 -1.9277 -0.5911 -2.8984 -0.86388 c-0.43412 -0.12205 -0.84048 -0.30902 -1.2574 -0.47174 c-0.16764 -0.065388 -0.32244 -0.15785 -0.41918 -0.32174 c-0.19277 -0.32654 -0.011133 -0.72528 0.34781 -0.8781 c0.25489 -0.10852 0.50801 -0.10617 0.71406 0.0063282 c0.54621 0.29824 1.0243 0.13676 1.5138 -0.12258 c0.66984 -0.35485 1.3386 -0.70506 1.9927 -1.0946 c0.88776 -0.52875 1.6495 -1.2258 2.5544 -1.7264 c0.72258 -0.39967 1.378 -0.92028 1.8656 -1.6132 c0.051563 -0.073182 0.094392 -0.17642 0.1664 -0.2076 c0.66348 -0.28711 0.95058 -0.98238 1.5143 -1.3827 c0.24674 -0.17519 0.42656 -0.45358 0.6129 -0.7029 c0.28394 -0.38004 0.612 -0.71886 0.9702 -1.0223 c0.37875 -0.32092 0.69174 -0.69048 0.98304 -1.0876 c0.75432 -1.0286 1.5813 -1.9986 2.2956 -3.0626 c0.95928 -1.4289 1.6423 -2.9725 2.1554 -4.5945 c0.36955 -1.168 0.24733 -2.3493 -0.15727 -3.4991 c-0.10184 -0.28945 -0.27938 -0.38326 -0.61974 -0.345 c-1.556 0.17502 -2.9862 0.7314 -4.3978 1.3609 c-0.4285 0.19114 -0.86406 0.36627 -1.2964 0.54873 l0.004043 -0.004043 c-0.72204 0.29608 -1.4263 0.6351 -2.2105 0.7629 c-0.30404 0.049512 -0.59637 0.18826 -0.8856 0.30697 c-0.45416 0.18639 -0.94032 0.24638 -1.3797 0.07875 c-0.67422 -0.25717 -1.3874 -0.34987 -2.0635 -0.58606 c-0.84456 -0.29508 -1.6879 -0.59877 -2.5468 -0.84648 c-1.0408 -0.30017 -1.499 -1.0576 -1.7279 -2.0292 c-0.42129 -1.7889 -0.096858 -3.5237 0.47068 -5.2115 c0.46998 -1.3977 1.0387 -2.7634 1.5775 -4.138 c0.53485 -1.3645 1.2994 -2.6006 2.0348 -3.8433 c0.46957 -0.7935 1.0372 -1.5547 1.6176 -2.2955 c0.69612 -0.88848 1.5063 -1.6466 2.2925 -2.4385 c0.97662 -0.98364 2.1462 -1.6769 3.4069 -2.2055 c0.41473 -0.17385 0.92076 -0.18017 1.3741 -0.0067386 c1.1963 0.45767 2.2963 1.1048 3.3999 1.7456 c0.41068 0.23848 0.59719 0.65604 0.85092 1.0142 c0.14273 0.2015 -0.018164 0.45621 -0.23941 0.40793 c-1.2811 -0.2792 -2.1656 0.46336 -3.0681 1.1615 c-0.22682 0.17549 -0.41561 0.43125 -0.7485 0.22858 c-0.00023438 0.0007617 -0.00046875 0.0015235 -0.0007617 0.0022852 c-0.26959 0.0080862 -0.43394 0.15902 -0.53748 0.39246 c0.10735 -0.017695 0.2161 -0.035684 0.38261 -0.063162 c-0.18217 0.37892 -0.25916 0.7842 -0.82068 0.6012 c-0.20004 -0.065214 -0.3249 0.1111 -0.42205 0.26531 c-0.65364 1.0375 -1.5086 1.9247 -2.1904 2.9401 c-0.13494 0.20104 -0.41239 0.39375 -0.18697 0.7005 c0.017871 -0.011602 0.03586 -0.023203 0.053731 -0.034863 c-0.016816 0.013301 -0.033633 0.02666 -0.050449 0.040019 l-0.0041015 -0.0046875 c0.0012305 0.044238 0.0025781 0.088476 0.0038086 0.13271 c-0.34489 0.0019922 -0.49277 0.25213 -0.60876 0.51557 c-0.07875 0.17889 -0.07494 0.32619 0.19301 0.17666 c0.10564 -0.058945 0.19693 0.037735 0.1425 0.12316 c-0.27398 0.43037 -0.42041 0.9639 -0.9336 1.2086 c0.059121 0.13348 0.11924 0.26701 0.0011133 0.39932 l0.000058594 0 c-0.54328 1.2097 -1.078 2.4235 -1.6368 3.626 c-0.11608 0.24973 -0.21334 0.48668 -0.18662 0.76164 c0.027363 0.28131 -0.12563 0.51281 -0.21158 0.7605 c-0.088536 0.25489 -0.18117 0.50209 -0.12404 0.77724 c-0.042949 0.044121 -0.085842 0.088182 -0.12873 0.13231 l0.12656 0.0058008 c-0.074298 0.43846 -0.16383 0.87504 -0.21844 1.3159 c-0.058887 0.47513 0.065862 0.5707 0.52037 0.39475 c0.7089 -0.27428 1.4245 -0.53836 2.1101 -0.86376 c1.4299 -0.67872 2.9563 -1.029 4.4932 -1.3094 c0.75918 -0.13852 1.5531 -0.081564 2.3224 0.13705 c1.2572 0.35731 2.4242 0.9231 3.5698 1.5294 c0.61362 0.32479 1.2803 0.51803 1.8786 0.88554 c1.0447 0.64158 1.8149 1.5168 2.294 2.6172 z M15.61 19.714 c-0.21275 0.047578 -0.34822 0.17121 -0.3859 0.391 c0.16939 -0.090174 0.30856 -0.21006 0.3859 -0.391 z M14.584 20.597 c-0.048164 -0.046758 -0.10248 0.025254 -0.12967 0.079218 c-0.016289 0.032344 -0.026602 0.067614 -0.038613 0.10207 c0.031992 -0.017988 0.065214 -0.034394 0.094104 -0.056485 c0.042363 -0.032402 0.12803 -0.0726 0.074178 -0.12481 z M9.4242 27.759999999999998 c0.000058594 -0.033164 0.00011719 -0.06621 0.00029297 -0.099258 c-0.009375 0.011015 -0.020215 0.022148 -0.018985 0.031816 c0.0028711 0.022969 0.01084 0.045176 0.018691 0.06744 z M9.705 26.956000000000003 c0.034512 -0.048281 0.13394 -0.082854 0.028652 -0.16072 c-0.0095508 0.053555 -0.019102 0.10717 -0.028652 0.16072 z M9.4434 27.409 c-0.076404 0.072366 -0.037031 0.15269 -0.014473 0.23162 c0.06258 -0.060408 0.121 -0.12328 0.069786 -0.21949 c-0.0060936 -0.011426 -0.04711 -0.019922 -0.055313 -0.012129 z M9.39 28.156 c-0.010606 -0.0062112 -0.025019 -0.0058594 -0.037793 -0.0084378 c0.020332 0.0089646 0.040664 0.017813 0.060996 0.026777 c-0.0072654 -0.0069138 -0.014765 -0.013418 -0.023203 -0.01834 z M12.386 23.610999999999997 l0.0047461 0.0045703 c-0.0029297 0.0013477 -0.0055078 0.0029883 -0.0084378 0.004336 c0.0012305 -0.0029297 0.002461 -0.005918 0.0036914 -0.0089064 z M11.438 24.950000000000003 c0.24973 -0.48985 0.37225 -1.0706 0.94374 -1.331 c-0.21398 0.51398 -0.43588 1.0226 -0.92736 1.3459 c-0.060642 0.18721 -0.19242 0.26883 -0.45205 0.28623 c0.12604 -0.20408 0.30029 -0.22658 0.43588 -0.301 z M13.326 21.991999999999997 l0.0058594 0.007383 c-0.0014648 0.0019336 -0.0025781 0.0039844 -0.004043 0.005918 c-0.00058594 -0.0044531 -0.0012305 -0.0088476 -0.0018164 -0.013301 z M13.215 22.418 c-0.015117 -0.15106 0.021094 -0.29033 0.11291 -0.41285 c0.018574 0.1425 0.053203 0.27943 0.13986 0.39844 l-0.0044531 -0.0044531 l0.0044531 0.0044531 s-0.0044531 -0.0043945 -0.0044531 -0.0044531 c-0.030352 0.076992 -0.035508 0.19102 -0.12996 0.20121 c-0.11771 0.012773 -0.11045 -0.10277 -0.11836 -0.18235 z M12.53 23.472 c-0.00087888 0.0019336 -0.0017578 0.0038086 -0.0026367 0.005625 l-0.0020508 -0.0020508 l0.0021094 0.0021094 c-0.045469 0.045762 -0.090996 0.091524 -0.13646 0.13729 l-0.0046875 -0.0046875 c0.045762 -0.045527 0.091464 -0.091056 0.13717 -0.13658 c0.0021094 -0.00058594 0.004336 -0.0011133 0.0065628 -0.0016992 z M12.737 23.299 c0.052969 0.064104 -0.024727 0.11138 -0.08496 0.13682 c-0.038789 0.016406 -0.08127 0.024551 -0.12235 0.035684 c0.017461 -0.039023 0.031406 -0.080388 0.054785 -0.11543 c0.03668 -0.054844 0.10084 -0.11953 0.15252 -0.05707 z M10.613 26.125999999999998 c-0.068028 -0.0090234 -0.033809 -0.1108 -0.017871 -0.1732 c0.015527 -0.06123 0.031523 -0.12235 0.047344 -0.18358 c0.030293 0.056367 0.073476 0.11057 0.08373 0.17039 c0.014648 0.086016 0.0063864 0.20215 -0.1132 0.18639 z M10.646 25.759999999999998 c-0.00082032 0.0032813 -0.0016992 0.0066798 -0.0025781 0.0099612 c-0.0011133 -0.0019922 -0.0023438 -0.0039258 -0.0033985 -0.005918 c0 0 0.0060354 -0.0041015 0.0059765 -0.004043 z M12.934 22.988999999999997 c0.005918 -0.017813 0.012305 -0.050918 0.017754 -0.050742 c0.032988 0.00087888 0.065742 0.009375 0.098616 0.015293 c-0.0054492 0.017813 -0.010957 0.035566 -0.016465 0.053438 c-0.03334 -0.005918 -0.066618 -0.011953 -0.0999 -0.017988 z M13.864 22.098999999999997 c-0.0012305 -0.017227 0.019629 -0.036269 0.030235 -0.054434 c0.018047 0.0057422 0.046113 0.006621 0.05168 0.018281 c0.0079104 0.016406 0.0070314 0.047344 -0.0039844 0.060642 c-0.041133 0.04957 -0.073008 0.039551 -0.077928 -0.024492 z M13.469 21.991999999999997 l-0.0070314 0.0067968 l-0.12973 0 c0 0 -0.005918 -0.0075 -0.0058594 -0.0075 c0.047578 0.00023438 0.0951 0.00046875 0.14261 0.00070314 z M7.2768 34.114000000000004 c-0.00052735 -0.0018164 -0.0011719 -0.0036914 -0.0016992 -0.0055078 l0 -0.00017578 c0.00052735 -0.00052735 0.0010547 -0.0011133 0.001582 -0.0016406 c0 0.0024023 0.000058594 0.0049219 0.00011719 0.0073242 z M7.299 34.2 c0.0011133 0.010606 -0.010488 0.022441 -0.019805 0.034219 c-0.0009375 -0.040019 -0.0018164 -0.08004 -0.0026953 -0.12006 c0.008496 0.028477 0.019512 0.056777 0.0225 0.085842 z M7.2798 34.247 c0.000058594 0.000058594 -0.0062112 -0.0046289 -0.0062112 -0.0046289 c0.0016406 -0.0025781 0.0038672 -0.0052148 0.005918 -0.0078516 c0.000058594 0.0041602 0.00023438 0.0083202 0.00029297 0.012481 z"/>
  </g>
</svg>
